<svg xmlns="http://www.w3.org/2000/svg" xmlns:xlink="http://www.w3.org/1999/xlink" width="50" zoomAndPan="magnify" viewBox="0 0 37.5 37.499999" height="50" preserveAspectRatio="xMidYMid meet" version="1.0"><defs><clipPath id="9ad9c1ca0f"><path d="M 0 0 L 37.007812 0 L 37.007812 37.007812 L 0 37.007812 Z M 0 0 " clip-rule="nonzero"/></clipPath></defs><g clip-path="url(#9ad9c1ca0f)"><path fill="#000000" d="M 18.503906 0 C 8.300781 0 0 8.300781 0 18.503906 C 0 28.707031 8.300781 37.007812 18.503906 37.007812 C 28.707031 37.007812 37.007812 28.707031 37.007812 18.503906 C 37.007812 8.300781 28.707031 0 18.503906 0 Z M 30.210938 29.445312 C 27.796875 25.324219 23.371094 22.738281 18.503906 22.738281 C 13.632812 22.738281 9.210938 25.324219 6.796875 29.445312 C 4.113281 26.578125 2.46875 22.730469 2.46875 18.503906 C 2.46875 9.660156 9.660156 2.46875 18.503906 2.46875 C 27.34375 2.46875 34.539062 9.660156 34.539062 18.503906 C 34.539062 22.730469 32.894531 26.578125 30.210938 29.445312 Z M 30.210938 29.445312 " fill-opacity="1" fill-rule="nonzero"/></g><path fill="#000000" d="M 18.503906 5.46875 C 14.34375 5.46875 10.960938 8.851562 10.960938 13.011719 C 10.960938 17.171875 14.34375 20.554688 18.503906 20.554688 C 22.664062 20.554688 26.046875 17.171875 26.046875 13.011719 C 26.046875 8.851562 22.664062 5.46875 18.503906 5.46875 Z M 18.503906 5.46875 " fill-opacity="1" fill-rule="nonzero"/></svg>