<svg xmlns="http://www.w3.org/2000/svg" xmlns:xlink="http://www.w3.org/1999/xlink" width="800" zoomAndPan="magnify" viewBox="0 0 600 449.999984" height="600" preserveAspectRatio="xMidYMid meet" version="1.0"><defs><g/><clipPath id="ea662cdac8"><path d="M 118 183 L 195 183 L 195 254.238281 L 118 254.238281 Z M 118 183 " clip-rule="nonzero"/></clipPath><clipPath id="a71135f1a4"><path d="M 29.351562 262.667969 L 570.304688 262.667969 L 570.304688 267.167969 L 29.351562 267.167969 Z M 29.351562 262.667969 " clip-rule="nonzero"/></clipPath></defs><g fill="#112842" fill-opacity="1"><g transform="translate(17.592478, 253.901895)"><g><path d="M 41.777344 -29.523438 C 42.441406 -28.738281 43.105469 -28.074219 43.769531 -27.53125 C 45.039062 -26.445312 46.1875 -25.839844 47.816406 -25.839844 C 50.773438 -25.839844 53.1875 -28.375 56.390625 -32.238281 L 64.539062 -42.625 L 64.539062 -10.625 C 64.539062 -6.339844 66.289062 -3.382812 68.707031 -1.507812 C 71.058594 0.421875 73.957031 1.207031 76.132812 1.207031 C 79.453125 1.207031 82.347656 -0.121094 84.523438 -2.292969 C 86.636719 -4.40625 87.902344 -7.304688 87.902344 -10.625 L 87.902344 -59.832031 C 87.902344 -60.613281 87.902344 -61.640625 87.964844 -62.847656 C 88.023438 -64.054688 87.964844 -65.324219 87.84375 -66.710938 C 87.542969 -69.371094 86.878906 -72.207031 85.066406 -74.378906 C 83.253906 -76.492188 80.296875 -77.941406 75.707031 -77.941406 C 72.386719 -77.941406 70.335938 -77.519531 68.886719 -76.855469 C 67.4375 -76.132812 66.710938 -75.164062 66.046875 -74.140625 L 64.839844 -72.265625 C 64.238281 -71.300781 63.273438 -69.972656 61.882812 -68.28125 C 59.105469 -64.839844 54.636719 -59.648438 47.453125 -52.34375 L 27.894531 -73.898438 C 25.960938 -75.890625 24.453125 -76.914062 22.398438 -77.460938 C 20.347656 -77.941406 17.691406 -77.941406 13.644531 -77.941406 C 10.566406 -77.941406 8.753906 -77.460938 7.667969 -76.613281 C 6.582031 -75.769531 6.15625 -74.5 6.15625 -73.050781 C 6.15625 -71.722656 6.339844 -70.394531 6.703125 -69.128906 C 7.0625 -67.859375 7.246094 -66.53125 7.246094 -65.265625 C 7.367188 -56.148438 7.425781 -47.089844 7.367188 -38.035156 C 7.304688 -28.917969 7.246094 -19.800781 7.246094 -10.625 C 7.246094 -7.304688 8.511719 -4.40625 10.625 -2.292969 C 12.738281 -0.121094 15.636719 1.207031 19.019531 1.207031 C 22.398438 1.207031 25.296875 -0.121094 27.410156 -2.292969 C 29.523438 -4.40625 30.789062 -7.304688 30.789062 -10.625 L 30.789062 -17.085938 C 30.730469 -19.136719 30.730469 -21.371094 30.730469 -23.726562 L 30.730469 -31.816406 C 30.667969 -34.835938 30.667969 -38.457031 30.667969 -42.625 L 39.242188 -32.238281 Z M 41.777344 -29.523438 "/></g></g></g><g fill="#112842" fill-opacity="1"><g transform="translate(111.445148, 253.901895)"><g/></g></g><g fill="#112842" fill-opacity="1"><g transform="translate(139.696437, 253.901895)"><g/></g></g><g fill="#112842" fill-opacity="1"><g transform="translate(167.947727, 253.901895)"><g/></g></g><g fill="#112842" fill-opacity="1"><g transform="translate(196.187434, 253.901895)"><g><path d="M 14.488281 -10.625 C 14.488281 -7.304688 15.757812 -4.347656 17.871094 -2.234375 C 19.984375 -0.0585938 22.882812 1.207031 26.261719 1.207031 C 29.460938 1.207031 32.480469 -0.0585938 34.59375 -2.234375 C 36.707031 -4.347656 38.035156 -7.304688 38.035156 -10.625 L 38.035156 -36.707031 L 39.363281 -36.707031 C 42.5625 -36.707031 45.402344 -37.976562 47.515625 -40.089844 C 49.628906 -42.199219 50.894531 -45.039062 50.894531 -48.179688 C 50.894531 -51.378906 49.628906 -54.277344 47.515625 -56.390625 C 45.402344 -58.503906 42.5625 -59.710938 39.363281 -59.710938 L 38.035156 -59.710938 L 38.035156 -67.015625 C 38.035156 -70.214844 36.707031 -73.234375 34.59375 -75.347656 C 32.480469 -77.460938 29.460938 -78.789062 26.261719 -78.789062 C 22.882812 -78.789062 19.984375 -77.460938 17.871094 -75.347656 C 15.757812 -73.234375 14.488281 -70.214844 14.488281 -67.015625 L 14.488281 -59.710938 L 13.402344 -59.710938 C 10.082031 -59.710938 7.304688 -58.503906 5.253906 -56.390625 C 3.199219 -54.277344 1.933594 -51.378906 1.933594 -48.179688 C 1.933594 -45.039062 3.199219 -42.199219 5.253906 -40.089844 C 7.304688 -37.976562 10.082031 -36.707031 13.402344 -36.707031 L 14.488281 -36.707031 Z M 14.488281 -10.625 "/></g></g></g><g fill="#112842" fill-opacity="1"><g transform="translate(248.947309, 253.901895)"><g><path d="M 56.871094 -50.171875 C 54.515625 -52.828125 51.195312 -55.179688 47.210938 -56.871094 C 43.226562 -58.5625 38.699219 -59.589844 34.050781 -59.589844 C 25.660156 -59.589844 18.171875 -56.148438 12.679688 -50.652344 C 7.125 -45.160156 3.742188 -37.492188 3.742188 -29.222656 C 3.742188 -20.828125 7.125 -13.222656 12.679688 -7.726562 C 18.171875 -2.171875 25.660156 1.207031 34.050781 1.207031 C 42.199219 1.207031 48.902344 -0.964844 53.550781 -4.226562 C 58.140625 -7.484375 60.796875 -11.894531 60.796875 -16.664062 C 60.796875 -21.011719 58.925781 -24.210938 55.785156 -26.082031 C 52.222656 -27.953125 48.058594 -27.589844 44.859375 -25.960938 C 44.074219 -25.539062 43.347656 -25.117188 42.5625 -24.632812 C 41.777344 -24.089844 40.992188 -23.667969 40.089844 -23.304688 C 37.191406 -22.097656 33.992188 -21.675781 31.574219 -22.578125 C 29.101562 -23.484375 27.410156 -25.597656 27.410156 -29.222656 C 27.410156 -32.902344 29.28125 -34.957031 31.816406 -35.800781 C 34.351562 -36.648438 37.429688 -36.285156 40.089844 -35.136719 C 40.933594 -34.714844 41.71875 -34.230469 42.503906 -33.808594 C 43.289062 -33.328125 44.074219 -32.902344 44.859375 -32.480469 C 46.425781 -31.636719 48.058594 -31.03125 49.988281 -31.03125 C 53.308594 -31.03125 55.964844 -32.300781 57.898438 -34.230469 C 59.769531 -36.164062 60.796875 -38.878906 60.796875 -41.777344 C 60.796875 -44.675781 59.285156 -47.574219 56.871094 -50.171875 Z M 56.871094 -50.171875 "/></g></g></g><g fill="#112842" fill-opacity="1"><g transform="translate(313.538916, 253.901895)"><g><path d="M 6.277344 -10.625 C 6.277344 -7.304688 7.546875 -4.347656 9.71875 -2.234375 C 11.832031 -0.0585938 14.792969 1.207031 18.113281 1.207031 C 21.3125 1.207031 24.332031 -0.0585938 26.503906 -2.234375 C 28.617188 -4.347656 29.945312 -7.304688 29.945312 -10.625 L 29.945312 -29.222656 C 29.945312 -31.152344 30.730469 -33.023438 31.996094 -34.472656 C 33.265625 -35.921875 35.015625 -36.828125 36.949219 -36.828125 C 38.878906 -36.828125 40.570312 -35.984375 41.777344 -34.65625 C 42.984375 -33.328125 43.648438 -31.515625 43.648438 -29.582031 L 43.648438 -12.316406 C 43.648438 -8.753906 44.675781 -5.375 46.667969 -2.898438 C 48.601562 -0.421875 51.558594 1.207031 55.421875 1.207031 C 58.742188 1.207031 61.640625 -0.179688 63.816406 -2.355469 C 65.929688 -4.527344 67.257812 -7.484375 67.257812 -10.625 L 67.257812 -29.582031 C 67.257812 -37.855469 64.78125 -45.523438 60.253906 -51.015625 C 55.664062 -56.507812 49.023438 -59.949219 40.632812 -59.949219 C 38.761719 -59.949219 36.648438 -59.527344 34.714844 -58.683594 C 32.78125 -57.835938 30.972656 -56.691406 29.945312 -55.300781 L 29.945312 -67.015625 C 29.945312 -70.214844 28.617188 -73.234375 26.503906 -75.347656 C 24.332031 -77.460938 21.3125 -78.789062 18.113281 -78.789062 C 14.792969 -78.789062 11.832031 -77.460938 9.71875 -75.347656 C 7.546875 -73.234375 6.277344 -70.214844 6.277344 -67.015625 Z M 6.277344 -10.625 "/></g></g></g><g fill="#112842" fill-opacity="1"><g transform="translate(386.883595, 253.901895)"><g><path d="M 71.300781 -49.507812 C 71.300781 -57.71875 67.617188 -65.023438 61.882812 -70.335938 C 56.085938 -75.585938 48.300781 -78.789062 40.089844 -78.789062 L 14.972656 -78.789062 C 11.894531 -78.789062 10.082031 -78.304688 8.996094 -77.460938 C 7.910156 -76.613281 7.484375 -75.347656 7.484375 -73.898438 C 7.484375 -72.75 7.667969 -71.480469 7.96875 -70.152344 C 8.269531 -68.765625 8.511719 -67.4375 8.574219 -66.109375 L 8.574219 -10.625 C 8.574219 -7.304688 9.839844 -4.347656 11.953125 -2.234375 C 14.066406 -0.0585938 16.964844 1.207031 20.347656 1.207031 C 23.667969 1.207031 26.5625 -0.0585938 28.738281 -2.234375 C 30.851562 -4.347656 32.117188 -7.304688 32.117188 -10.625 L 32.117188 -20.890625 L 40.089844 -20.890625 C 45.582031 -20.890625 50.835938 -22.277344 55.484375 -24.753906 C 60.070312 -27.167969 63.996094 -30.609375 66.832031 -34.894531 C 69.671875 -39.183594 71.300781 -44.132812 71.300781 -49.507812 Z M 48.179688 -48.78125 C 48.179688 -46.546875 47.273438 -44.554688 45.824219 -43.167969 C 44.375 -41.71875 42.320312 -40.871094 40.089844 -40.871094 L 31.636719 -40.871094 L 31.636719 -57.835938 L 40.089844 -57.835938 C 42.320312 -57.835938 44.375 -56.691406 45.824219 -55 C 47.273438 -53.308594 48.179688 -51.015625 48.179688 -48.78125 Z M 48.179688 -48.78125 "/></g></g></g><g fill="#112842" fill-opacity="1"><g transform="translate(461.314861, 253.901895)"><g><path d="M 34.171875 1.207031 C 38.820312 1.207031 44.132812 0.542969 48.300781 -1.328125 C 52.402344 -3.199219 55.363281 -6.15625 55.300781 -10.808594 C 55.242188 -13.644531 54.09375 -15.816406 52.285156 -17.328125 C 50.472656 -18.835938 48.058594 -19.683594 45.640625 -19.984375 C 43.226562 -20.285156 40.8125 -19.921875 39.0625 -19.136719 C 37.429688 -18.414062 36.164062 -17.808594 34.292969 -17.808594 C 32.660156 -17.808594 31.214844 -18.59375 30.066406 -19.683594 C 28.859375 -20.769531 28.074219 -21.976562 27.894531 -23.125 L 54.515625 -23.125 C 57.476562 -23.125 60.011719 -23.484375 61.761719 -24.632812 C 63.511719 -25.78125 64.601562 -27.710938 64.601562 -30.851562 C 64.601562 -39.242188 61.160156 -46.425781 55.664062 -51.5 C 50.109375 -56.570312 42.5625 -59.589844 34.171875 -59.589844 C 25.78125 -59.589844 18.234375 -56.148438 12.738281 -50.652344 C 7.183594 -45.160156 3.742188 -37.492188 3.742188 -29.222656 C 3.742188 -20.828125 7.183594 -13.222656 12.738281 -7.726562 C 18.234375 -2.171875 25.78125 1.207031 34.171875 1.207031 Z M 34.171875 -40.871094 C 35.378906 -40.871094 36.949219 -40.390625 38.277344 -39.664062 C 39.605469 -38.878906 40.632812 -37.734375 40.8125 -36.34375 L 27.53125 -36.34375 C 27.832031 -37.734375 28.796875 -38.878906 30.066406 -39.664062 C 31.273438 -40.390625 32.78125 -40.871094 34.171875 -40.871094 Z M 34.171875 -40.871094 "/></g></g></g><g fill="#112842" fill-opacity="1"><g transform="translate(529.64915, 253.901895)"><g><path d="M 14.488281 -10.625 C 14.488281 -7.304688 15.757812 -4.347656 17.871094 -2.234375 C 19.984375 -0.0585938 22.882812 1.207031 26.261719 1.207031 C 29.460938 1.207031 32.480469 -0.0585938 34.59375 -2.234375 C 36.707031 -4.347656 38.035156 -7.304688 38.035156 -10.625 L 38.035156 -36.707031 L 39.363281 -36.707031 C 42.5625 -36.707031 45.402344 -37.976562 47.515625 -40.089844 C 49.628906 -42.199219 50.894531 -45.039062 50.894531 -48.179688 C 50.894531 -51.378906 49.628906 -54.277344 47.515625 -56.390625 C 45.402344 -58.503906 42.5625 -59.710938 39.363281 -59.710938 L 38.035156 -59.710938 L 38.035156 -67.015625 C 38.035156 -70.214844 36.707031 -73.234375 34.59375 -75.347656 C 32.480469 -77.460938 29.460938 -78.789062 26.261719 -78.789062 C 22.882812 -78.789062 19.984375 -77.460938 17.871094 -75.347656 C 15.757812 -73.234375 14.488281 -70.214844 14.488281 -67.015625 L 14.488281 -59.710938 L 13.402344 -59.710938 C 10.082031 -59.710938 7.304688 -58.503906 5.253906 -56.390625 C 3.199219 -54.277344 1.933594 -51.378906 1.933594 -48.179688 C 1.933594 -45.039062 3.199219 -42.199219 5.253906 -40.089844 C 7.304688 -37.976562 10.082031 -36.707031 13.402344 -36.707031 L 14.488281 -36.707031 Z M 14.488281 -10.625 "/></g></g></g><g clip-path="url(#ea662cdac8)"><path fill="#112842" d="M 193.46875 212.265625 L 159.292969 184.148438 C 157.886719 182.992188 155.859375 182.992188 154.453125 184.148438 L 120.28125 212.265625 C 117.519531 214.535156 119.128906 219.015625 122.703125 219.015625 L 125.875 219.015625 L 125.875 251.125 C 125.875 252.847656 127.269531 254.242188 128.992188 254.242188 L 184.757812 254.242188 C 186.476562 254.242188 187.871094 252.847656 187.871094 251.125 L 187.871094 219.015625 L 191.046875 219.015625 C 194.621094 219.015625 196.226562 214.535156 193.46875 212.265625 Z M 162.121094 206.839844 C 163.996094 206.203125 165.5625 207.8125 166.398438 209.359375 C 167.402344 211.21875 167.640625 213.652344 167.265625 215.691406 C 167.222656 215.921875 167.167969 216.152344 167.097656 216.378906 C 166.738281 217.535156 166.023438 218.585938 164.953125 219.097656 C 164.03125 219.539062 162.925781 219.539062 161.953125 219.183594 C 160.4375 218.632812 158.992188 217.183594 158.582031 215.589844 C 157.871094 212.832031 159.171875 207.84375 162.121094 206.839844 Z M 147.910156 209.242188 C 148.761719 207.707031 150.34375 206.109375 152.210938 206.765625 C 155.152344 207.800781 156.402344 212.800781 155.660156 215.554688 C 155.234375 217.140625 153.773438 218.578125 152.253906 219.113281 C 151.277344 219.457031 150.171875 219.445312 149.253906 218.996094 C 148.191406 218.472656 147.484375 217.414062 147.140625 216.253906 C 147.070312 216.027344 147.019531 215.796875 146.976562 215.566406 C 146.625 213.523438 146.886719 211.09375 147.910156 209.242188 Z M 139.964844 228.582031 C 138.898438 227.964844 138.359375 226.726562 138.074219 225.527344 C 137.785156 224.316406 137.683594 223.0625 137.773438 221.820312 C 137.851562 220.742188 138.089844 219.640625 138.722656 218.765625 C 139.296875 217.96875 140.269531 217.355469 141.277344 217.457031 C 141.882812 217.515625 142.4375 217.820312 142.898438 218.214844 C 144.8125 219.855469 146.550781 222.761719 146.335938 225.347656 C 146.335938 225.351562 146.335938 225.355469 146.335938 225.359375 C 146.101562 228.113281 142.359375 229.96875 139.964844 228.582031 Z M 168.867188 239.003906 C 168.125 240.835938 166.304688 242.203125 164.347656 242.460938 C 163.160156 242.617188 162.023438 242.414062 160.902344 242.09375 C 159.5625 241.710938 158.183594 241.519531 156.800781 241.519531 C 155.421875 241.519531 154.039062 241.710938 152.699219 242.09375 C 151.578125 242.414062 150.441406 242.617188 149.253906 242.460938 C 147.296875 242.203125 145.480469 240.835938 144.738281 239.003906 C 144.050781 237.3125 144.28125 235.28125 145.332031 233.785156 C 146.976562 231.441406 149.910156 230.511719 151.285156 227.878906 C 152.539062 225.46875 153.476562 222.140625 156.800781 222.140625 C 160.125 222.140625 161.0625 225.46875 162.320312 227.878906 C 163.691406 230.511719 166.625 231.441406 168.273438 233.785156 C 169.320312 235.28125 169.550781 237.3125 168.867188 239.003906 Z M 175.46875 226.308594 C 175.105469 227.484375 174.488281 228.6875 173.386719 229.234375 C 170.90625 230.46875 167.292969 228.375 167.234375 225.609375 C 167.234375 225.605469 167.234375 225.605469 167.234375 225.601562 C 167.183594 223.003906 169.105469 220.214844 171.125 218.699219 C 171.605469 218.335938 172.183594 218.070312 172.789062 218.046875 C 173.800781 218.015625 174.734375 218.6875 175.253906 219.519531 C 175.828125 220.433594 175.996094 221.546875 176.007812 222.625 C 176.015625 223.871094 175.835938 225.117188 175.46875 226.308594 Z M 175.46875 226.308594 " fill-opacity="1" fill-rule="nonzero"/></g><g clip-path="url(#a71135f1a4)"><path fill="#112842" d="M 567.890625 267.199219 L 31.765625 267.199219 C 30.429688 267.199219 29.351562 266.183594 29.351562 264.9375 C 29.351562 263.683594 30.429688 262.667969 31.765625 262.667969 L 567.890625 262.667969 C 569.21875 262.667969 570.296875 263.683594 570.296875 264.9375 C 570.296875 266.183594 569.21875 267.199219 567.890625 267.199219 " fill-opacity="1" fill-rule="nonzero"/></g></svg>