<svg xmlns="http://www.w3.org/2000/svg" xmlns:xlink="http://www.w3.org/1999/xlink" width="800" zoomAndPan="magnify" viewBox="0 0 600 449.999984" height="600" preserveAspectRatio="xMidYMid meet" version="1.0"><defs><clipPath id="89dea295b8"><path d="M 118 56 L 482 56 L 482 394.757812 L 118 394.757812 Z M 118 56 " clip-rule="nonzero"/></clipPath></defs><g clip-path="url(#89dea295b8)"><path fill="#ffffff" d="M 474.605469 194.605469 L 311.5625 60.535156 C 304.851562 55.015625 295.171875 55.015625 288.460938 60.535156 L 125.421875 194.605469 C 112.25 205.4375 119.914062 226.792969 136.96875 226.792969 L 152.113281 226.792969 L 152.113281 379.910156 C 152.113281 388.117188 158.769531 394.765625 166.980469 394.765625 L 433.042969 394.765625 C 441.257812 394.765625 447.914062 388.117188 447.914062 379.910156 L 447.914062 226.792969 L 463.054688 226.792969 C 480.113281 226.792969 487.777344 205.4375 474.605469 194.605469 Z M 325.058594 168.734375 C 334 165.695312 341.46875 173.378906 345.460938 180.757812 C 350.253906 189.625 351.382812 201.222656 349.59375 210.945312 C 349.390625 212.046875 349.121094 213.144531 348.789062 214.222656 C 347.078125 219.742188 343.660156 224.75 338.554688 227.195312 C 334.164062 229.296875 328.886719 229.285156 324.238281 227.597656 C 317.023438 224.972656 310.121094 218.054688 308.164062 210.464844 C 304.769531 197.304688 310.976562 173.523438 325.058594 168.734375 Z M 257.242188 180.195312 C 261.308594 172.863281 268.855469 165.253906 277.769531 168.386719 C 291.800781 173.320312 297.761719 197.167969 294.230469 210.289062 C 292.191406 217.859375 285.222656 224.703125 277.976562 227.253906 C 273.3125 228.894531 268.035156 228.851562 263.664062 226.703125 C 258.585938 224.207031 255.21875 219.164062 253.566406 213.628906 C 253.246094 212.546875 252.988281 211.445312 252.796875 210.339844 C 251.105469 200.601562 252.355469 189.011719 257.242188 180.195312 Z M 219.328125 272.40625 C 214.25 269.460938 211.675781 263.558594 210.3125 257.847656 C 208.929688 252.074219 208.449219 246.085938 208.878906 240.164062 C 209.257812 235.03125 210.394531 229.78125 213.40625 225.609375 C 216.152344 221.8125 220.785156 218.886719 225.605469 219.359375 C 228.480469 219.640625 231.136719 221.089844 233.332031 222.96875 C 242.46875 230.800781 250.765625 244.65625 249.734375 256.996094 C 249.734375 257.011719 249.730469 257.023438 249.730469 257.039062 C 248.605469 270.179688 230.753906 279.03125 219.328125 272.40625 Z M 357.230469 322.109375 C 353.683594 330.84375 345.007812 337.359375 335.667969 338.589844 C 330.007812 339.335938 324.585938 338.371094 319.238281 336.84375 C 312.835938 335.019531 306.253906 334.109375 299.664062 334.109375 C 293.078125 334.109375 286.496094 335.019531 280.09375 336.84375 C 274.746094 338.371094 269.320312 339.335938 263.664062 338.589844 C 254.324219 337.359375 245.644531 330.84375 242.101562 322.109375 C 238.828125 314.042969 239.933594 304.351562 244.9375 297.226562 C 252.785156 286.050781 266.796875 281.613281 273.339844 269.054688 C 279.328125 257.5625 283.800781 241.695312 299.664062 241.695312 C 315.53125 241.695312 320.003906 257.5625 325.992188 269.054688 C 332.535156 281.613281 346.542969 286.050781 354.394531 297.226562 C 359.398438 304.351562 360.5 314.042969 357.230469 322.109375 Z M 388.734375 261.570312 C 387.003906 267.183594 384.058594 272.90625 378.800781 275.519531 C 366.972656 281.402344 349.726562 271.421875 349.449219 258.238281 C 349.445312 258.222656 349.445312 258.207031 349.445312 258.195312 C 349.207031 245.8125 358.378906 232.519531 368 225.289062 C 370.308594 223.554688 373.054688 222.277344 375.941406 222.179688 C 380.78125 222.019531 385.21875 225.234375 387.714844 229.199219 C 390.453125 233.558594 391.25 238.867188 391.296875 244.015625 C 391.347656 249.953125 390.480469 255.898438 388.734375 261.570312 Z M 388.734375 261.570312 " fill-opacity="1" fill-rule="nonzero"/></g></svg>