<svg xmlns="http://www.w3.org/2000/svg" xmlns:xlink="http://www.w3.org/1999/xlink" width="183" zoomAndPan="magnify" viewBox="0 0 137.25 126.750001" height="169" preserveAspectRatio="xMidYMid meet" version="1.0"><defs><clipPath id="01b8d2b209"><path d="M 2 1.839844 L 135.335938 1.839844 L 135.335938 126.28125 L 2 126.28125 Z M 2 1.839844 " clip-rule="nonzero"/></clipPath></defs><g clip-path="url(#01b8d2b209)"><path fill="#112842" d="M 132.621094 52.847656 L 72.828125 3.511719 C 70.367188 1.480469 66.816406 1.480469 64.355469 3.511719 L 4.5625 52.847656 C -0.269531 56.832031 2.542969 64.691406 8.796875 64.691406 L 14.351562 64.691406 L 14.351562 121.035156 C 14.351562 124.054688 16.792969 126.5 19.800781 126.5 L 117.378906 126.5 C 120.390625 126.5 122.832031 124.054688 122.832031 121.035156 L 122.832031 64.691406 L 128.386719 64.691406 C 134.644531 64.691406 137.453125 56.832031 132.621094 52.847656 Z M 77.777344 43.324219 C 81.054688 42.207031 83.796875 45.035156 85.257812 47.75 C 87.015625 51.011719 87.429688 55.28125 86.773438 58.859375 C 86.699219 59.265625 86.601562 59.667969 86.480469 60.066406 C 85.851562 62.097656 84.597656 63.9375 82.726562 64.839844 C 81.117188 65.613281 79.179688 65.609375 77.476562 64.988281 C 74.832031 64.019531 72.296875 61.476562 71.582031 58.683594 C 70.335938 53.839844 72.613281 45.089844 77.777344 43.324219 Z M 52.90625 47.542969 C 54.398438 44.84375 57.164062 42.046875 60.433594 43.199219 C 65.578125 45.011719 67.765625 53.789062 66.472656 58.617188 C 65.722656 61.402344 63.167969 63.921875 60.511719 64.859375 C 58.800781 65.464844 56.863281 65.449219 55.261719 64.65625 C 53.398438 63.738281 52.164062 61.882812 51.558594 59.847656 C 51.441406 59.449219 51.34375 59.042969 51.273438 58.636719 C 50.65625 55.050781 51.113281 50.789062 52.90625 47.542969 Z M 39 81.476562 C 37.136719 80.390625 36.195312 78.21875 35.695312 76.117188 C 35.1875 73.992188 35.011719 71.789062 35.167969 69.609375 C 35.308594 67.722656 35.722656 65.789062 36.828125 64.253906 C 37.835938 62.859375 39.535156 61.78125 41.304688 61.957031 C 42.355469 62.058594 43.332031 62.59375 44.136719 63.285156 C 47.488281 66.164062 50.53125 71.265625 50.152344 75.804688 C 50.152344 75.808594 50.152344 75.816406 50.152344 75.820312 C 49.738281 80.65625 43.191406 83.914062 39 81.476562 Z M 89.574219 99.765625 C 88.273438 102.980469 85.09375 105.378906 81.667969 105.828125 C 79.59375 106.105469 77.605469 105.75 75.640625 105.1875 C 73.292969 104.515625 70.878906 104.179688 68.464844 104.179688 C 66.046875 104.179688 63.632812 104.515625 61.285156 105.1875 C 59.324219 105.75 57.335938 106.105469 55.261719 105.828125 C 51.835938 105.378906 48.652344 102.980469 47.351562 99.765625 C 46.152344 96.796875 46.558594 93.230469 48.394531 90.609375 C 51.269531 86.496094 56.410156 84.863281 58.808594 80.242188 C 61.003906 76.011719 62.644531 70.175781 68.464844 70.175781 C 74.28125 70.175781 75.921875 76.011719 78.121094 80.242188 C 80.519531 84.863281 85.65625 86.496094 88.535156 90.609375 C 90.371094 93.230469 90.773438 96.796875 89.574219 99.765625 Z M 101.128906 77.488281 C 100.496094 79.554688 99.414062 81.660156 97.488281 82.621094 C 93.148438 84.785156 86.824219 81.113281 86.722656 76.261719 C 86.71875 76.257812 86.71875 76.25 86.71875 76.246094 C 86.632812 71.6875 89.996094 66.796875 93.527344 64.136719 C 94.371094 63.5 95.378906 63.027344 96.4375 62.992188 C 98.214844 62.933594 99.839844 64.117188 100.757812 65.574219 C 101.761719 67.179688 102.050781 69.132812 102.070312 71.027344 C 102.089844 73.214844 101.769531 75.402344 101.128906 77.488281 Z M 101.128906 77.488281 " fill-opacity="1" fill-rule="nonzero"/></g></svg>