<svg xmlns="http://www.w3.org/2000/svg" xmlns:xlink="http://www.w3.org/1999/xlink" width="317" zoomAndPan="magnify" viewBox="0 0 237.75 40.499999" height="54" preserveAspectRatio="xMidYMid meet" version="1.0"><defs><clipPath id="27239c2e12"><path d="M 48 5.328125 L 78.457031 5.328125 L 78.457031 33.503906 L 48 33.503906 Z M 48 5.328125 " clip-rule="nonzero"/></clipPath><clipPath id="4a6bf6b1f0"><path d="M 12.9375 36.839844 L 226.902344 36.839844 L 226.902344 38.621094 L 12.9375 38.621094 Z M 12.9375 36.839844 " clip-rule="nonzero"/></clipPath></defs><path fill="#112842" d="M 24.808594 21.695312 C 25.070312 22.003906 25.335938 22.269531 25.597656 22.484375 C 26.097656 22.914062 26.554688 23.152344 27.199219 23.152344 C 28.367188 23.152344 29.320312 22.148438 30.589844 20.621094 L 33.8125 16.511719 L 33.8125 29.171875 C 33.8125 30.863281 34.503906 32.035156 35.460938 32.777344 C 36.390625 33.539062 37.539062 33.851562 38.398438 33.851562 C 39.710938 33.851562 40.855469 33.324219 41.714844 32.464844 C 42.550781 31.628906 43.054688 30.484375 43.054688 29.171875 L 43.054688 9.707031 C 43.054688 9.398438 43.054688 8.992188 43.078125 8.515625 C 43.101562 8.035156 43.078125 7.535156 43.03125 6.984375 C 42.910156 5.933594 42.648438 4.8125 41.929688 3.953125 C 41.214844 3.117188 40.046875 2.542969 38.230469 2.542969 C 36.917969 2.542969 36.105469 2.710938 35.53125 2.972656 C 34.957031 3.257812 34.671875 3.644531 34.410156 4.046875 L 33.929688 4.789062 C 33.691406 5.171875 33.3125 5.695312 32.761719 6.363281 C 31.664062 7.726562 29.894531 9.78125 27.054688 12.667969 L 19.316406 4.144531 C 18.554688 3.355469 17.957031 2.949219 17.144531 2.734375 C 16.332031 2.542969 15.28125 2.542969 13.679688 2.542969 C 12.464844 2.542969 11.746094 2.734375 11.316406 3.070312 C 10.886719 3.402344 10.71875 3.90625 10.71875 4.476562 C 10.71875 5.003906 10.792969 5.527344 10.9375 6.03125 C 11.078125 6.53125 11.152344 7.058594 11.152344 7.558594 C 11.199219 11.164062 11.222656 14.746094 11.199219 18.328125 C 11.171875 21.933594 11.152344 25.539062 11.152344 29.171875 C 11.152344 30.484375 11.652344 31.628906 12.488281 32.464844 C 13.324219 33.324219 14.46875 33.851562 15.808594 33.851562 C 17.144531 33.851562 18.289062 33.324219 19.125 32.464844 C 19.960938 31.628906 20.460938 30.484375 20.460938 29.171875 L 20.460938 26.613281 C 20.441406 25.804688 20.441406 24.917969 20.441406 23.988281 L 20.441406 20.789062 C 20.414062 19.59375 20.414062 18.160156 20.414062 16.511719 L 23.804688 20.621094 Z M 24.808594 21.695312 " fill-opacity="1" fill-rule="nonzero"/><path fill="#112842" d="M 84.65625 29.171875 C 84.65625 30.484375 85.160156 31.652344 85.996094 32.488281 C 86.832031 33.351562 87.976562 33.851562 89.3125 33.851562 C 90.578125 33.851562 91.773438 33.351562 92.609375 32.488281 C 93.445312 31.652344 93.96875 30.484375 93.96875 29.171875 L 93.96875 18.855469 L 94.496094 18.855469 C 95.761719 18.855469 96.882812 18.351562 97.71875 17.515625 C 98.554688 16.679688 99.054688 15.558594 99.054688 14.316406 C 99.054688 13.050781 98.554688 11.902344 97.71875 11.066406 C 96.882812 10.230469 95.761719 9.753906 94.496094 9.753906 L 93.96875 9.753906 L 93.96875 6.867188 C 93.96875 5.601562 93.445312 4.40625 92.609375 3.570312 C 91.773438 2.734375 90.578125 2.207031 89.3125 2.207031 C 87.976562 2.207031 86.832031 2.734375 85.996094 3.570312 C 85.160156 4.40625 84.65625 5.601562 84.65625 6.867188 L 84.65625 9.753906 L 84.226562 9.753906 C 82.914062 9.753906 81.816406 10.230469 81.003906 11.066406 C 80.191406 11.902344 79.691406 13.050781 79.691406 14.316406 C 79.691406 15.558594 80.191406 16.679688 81.003906 17.515625 C 81.816406 18.351562 82.914062 18.855469 84.226562 18.855469 L 84.65625 18.855469 Z M 84.65625 29.171875 " fill-opacity="1" fill-rule="nonzero"/><path fill="#112842" d="M 122.289062 13.527344 C 121.355469 12.476562 120.042969 11.546875 118.46875 10.878906 C 116.890625 10.210938 115.101562 9.804688 113.261719 9.804688 C 109.945312 9.804688 106.980469 11.164062 104.808594 13.339844 C 102.613281 15.511719 101.273438 18.542969 101.273438 21.8125 C 101.273438 25.132812 102.613281 28.144531 104.808594 30.316406 C 106.980469 32.515625 109.945312 33.851562 113.261719 33.851562 C 116.484375 33.851562 119.136719 32.992188 120.976562 31.699219 C 122.789062 30.414062 123.839844 28.667969 123.839844 26.78125 C 123.839844 25.0625 123.101562 23.796875 121.859375 23.054688 C 120.449219 22.316406 118.804688 22.460938 117.539062 23.105469 C 117.226562 23.269531 116.941406 23.4375 116.628906 23.628906 C 116.320312 23.84375 116.007812 24.011719 115.652344 24.15625 C 114.503906 24.632812 113.238281 24.800781 112.28125 24.441406 C 111.304688 24.082031 110.636719 23.246094 110.636719 21.8125 C 110.636719 20.359375 111.375 19.546875 112.378906 19.210938 C 113.382812 18.878906 114.597656 19.019531 115.652344 19.476562 C 115.984375 19.640625 116.296875 19.832031 116.605469 20 C 116.917969 20.191406 117.226562 20.359375 117.539062 20.527344 C 118.15625 20.859375 118.804688 21.097656 119.566406 21.097656 C 120.878906 21.097656 121.929688 20.597656 122.695312 19.832031 C 123.433594 19.070312 123.839844 17.996094 123.839844 16.847656 C 123.839844 15.703125 123.242188 14.554688 122.289062 13.527344 Z M 122.289062 13.527344 " fill-opacity="1" fill-rule="nonzero"/><path fill="#112842" d="M 127.824219 29.171875 C 127.824219 30.484375 128.328125 31.652344 129.1875 32.488281 C 130.023438 33.351562 131.195312 33.851562 132.507812 33.851562 C 133.773438 33.851562 134.96875 33.351562 135.824219 32.488281 C 136.660156 31.652344 137.1875 30.484375 137.1875 29.171875 L 137.1875 21.8125 C 137.1875 21.050781 137.496094 20.3125 138 19.738281 C 138.5 19.164062 139.191406 18.804688 139.957031 18.804688 C 140.71875 18.804688 141.390625 19.140625 141.867188 19.664062 C 142.34375 20.191406 142.605469 20.90625 142.605469 21.671875 L 142.605469 28.5 C 142.605469 29.910156 143.011719 31.246094 143.800781 32.226562 C 144.566406 33.207031 145.734375 33.851562 147.265625 33.851562 C 148.578125 33.851562 149.722656 33.300781 150.585938 32.441406 C 151.421875 31.582031 151.945312 30.414062 151.945312 29.171875 L 151.945312 21.671875 C 151.945312 18.398438 150.964844 15.367188 149.175781 13.195312 C 147.359375 11.023438 144.734375 9.660156 141.414062 9.660156 C 140.675781 9.660156 139.839844 9.828125 139.074219 10.160156 C 138.308594 10.496094 137.59375 10.949219 137.1875 11.5 L 137.1875 6.867188 C 137.1875 5.601562 136.660156 4.40625 135.824219 3.570312 C 134.96875 2.734375 133.773438 2.207031 132.507812 2.207031 C 131.195312 2.207031 130.023438 2.734375 129.1875 3.570312 C 128.328125 4.40625 127.824219 5.601562 127.824219 6.867188 Z M 127.824219 29.171875 " fill-opacity="1" fill-rule="nonzero"/><path fill="#112842" d="M 182.554688 13.789062 C 182.554688 10.542969 181.097656 7.652344 178.832031 5.550781 C 176.539062 3.476562 173.457031 2.207031 170.210938 2.207031 L 160.277344 2.207031 C 159.058594 2.207031 158.339844 2.398438 157.910156 2.734375 C 157.480469 3.070312 157.3125 3.570312 157.3125 4.144531 C 157.3125 4.597656 157.386719 5.097656 157.503906 5.625 C 157.625 6.171875 157.71875 6.699219 157.746094 7.222656 L 157.746094 29.171875 C 157.746094 30.484375 158.246094 31.652344 159.082031 32.488281 C 159.917969 33.351562 161.0625 33.851562 162.402344 33.851562 C 163.714844 33.851562 164.859375 33.351562 165.71875 32.488281 C 166.554688 31.652344 167.058594 30.484375 167.058594 29.171875 L 167.058594 25.109375 L 170.210938 25.109375 C 172.382812 25.109375 174.460938 24.5625 176.300781 23.582031 C 178.113281 22.625 179.667969 21.265625 180.789062 19.570312 C 181.910156 17.875 182.554688 15.917969 182.554688 13.789062 Z M 173.410156 14.078125 C 173.410156 14.960938 173.050781 15.75 172.476562 16.296875 C 171.90625 16.871094 171.09375 17.207031 170.210938 17.207031 L 166.867188 17.207031 L 166.867188 10.496094 L 170.210938 10.496094 C 171.09375 10.496094 171.90625 10.949219 172.476562 11.617188 C 173.050781 12.289062 173.410156 13.195312 173.410156 14.078125 Z M 173.410156 14.078125 " fill-opacity="1" fill-rule="nonzero"/><path fill="#112842" d="M 197.308594 33.851562 C 199.148438 33.851562 201.25 33.585938 202.898438 32.847656 C 204.519531 32.105469 205.691406 30.9375 205.667969 29.097656 C 205.644531 27.976562 205.191406 27.117188 204.472656 26.519531 C 203.757812 25.921875 202.800781 25.585938 201.847656 25.46875 C 200.890625 25.347656 199.9375 25.492188 199.246094 25.804688 C 198.597656 26.089844 198.097656 26.328125 197.359375 26.328125 C 196.710938 26.328125 196.140625 26.019531 195.6875 25.585938 C 195.207031 25.15625 194.898438 24.679688 194.828125 24.226562 L 205.355469 24.226562 C 206.527344 24.226562 207.53125 24.082031 208.222656 23.628906 C 208.914062 23.175781 209.347656 22.410156 209.347656 21.167969 C 209.347656 17.851562 207.984375 15.007812 205.8125 13.003906 C 203.613281 10.996094 200.628906 9.804688 197.308594 9.804688 C 193.992188 9.804688 191.007812 11.164062 188.832031 13.339844 C 186.636719 15.511719 185.273438 18.542969 185.273438 21.8125 C 185.273438 25.132812 186.636719 28.144531 188.832031 30.316406 C 191.007812 32.515625 193.992188 33.851562 197.308594 33.851562 Z M 197.308594 17.207031 C 197.789062 17.207031 198.410156 17.398438 198.933594 17.683594 C 199.460938 17.996094 199.867188 18.449219 199.9375 18.996094 L 194.683594 18.996094 C 194.800781 18.449219 195.183594 17.996094 195.6875 17.683594 C 196.164062 17.398438 196.761719 17.207031 197.308594 17.207031 Z M 197.308594 17.207031 " fill-opacity="1" fill-rule="nonzero"/><path fill="#112842" d="M 216.554688 29.171875 C 216.554688 30.484375 217.054688 31.652344 217.890625 32.488281 C 218.726562 33.351562 219.875 33.851562 221.210938 33.851562 C 222.476562 33.851562 223.667969 33.351562 224.503906 32.488281 C 225.339844 31.652344 225.867188 30.484375 225.867188 29.171875 L 225.867188 18.855469 L 226.390625 18.855469 C 227.65625 18.855469 228.78125 18.351562 229.617188 17.515625 C 230.453125 16.679688 230.953125 15.558594 230.953125 14.316406 C 230.953125 13.050781 230.453125 11.902344 229.617188 11.066406 C 228.78125 10.230469 227.65625 9.753906 226.390625 9.753906 L 225.867188 9.753906 L 225.867188 6.867188 C 225.867188 5.601562 225.339844 4.40625 224.503906 3.570312 C 223.667969 2.734375 222.476562 2.207031 221.210938 2.207031 C 219.875 2.207031 218.726562 2.734375 217.890625 3.570312 C 217.054688 4.40625 216.554688 5.601562 216.554688 6.867188 L 216.554688 9.753906 L 216.125 9.753906 C 214.808594 9.753906 213.710938 10.230469 212.902344 11.066406 C 212.089844 11.902344 211.585938 13.050781 211.585938 14.316406 C 211.585938 15.558594 212.089844 16.679688 212.902344 17.515625 C 213.710938 18.351562 214.808594 18.855469 216.125 18.855469 L 216.554688 18.855469 Z M 216.554688 29.171875 " fill-opacity="1" fill-rule="nonzero"/><g clip-path="url(#27239c2e12)"><path fill="#112842" d="M 77.851562 16.902344 L 64.332031 5.78125 C 63.777344 5.324219 62.972656 5.324219 62.417969 5.78125 L 48.902344 16.902344 C 47.808594 17.800781 48.445312 19.574219 49.859375 19.574219 L 51.113281 19.574219 L 51.113281 32.273438 C 51.113281 32.957031 51.667969 33.507812 52.347656 33.507812 L 74.40625 33.507812 C 75.085938 33.507812 75.636719 32.957031 75.636719 32.273438 L 75.636719 19.574219 L 76.890625 19.574219 C 78.304688 19.574219 78.941406 17.800781 77.851562 16.902344 Z M 65.453125 14.757812 C 66.191406 14.507812 66.8125 15.144531 67.144531 15.753906 C 67.539062 16.488281 67.632812 17.453125 67.484375 18.257812 C 67.46875 18.351562 67.449219 18.441406 67.417969 18.53125 C 67.277344 18.988281 66.996094 19.402344 66.570312 19.605469 C 66.207031 19.78125 65.769531 19.78125 65.382812 19.640625 C 64.785156 19.421875 64.214844 18.847656 64.050781 18.21875 C 63.769531 17.128906 64.285156 15.15625 65.453125 14.757812 Z M 59.832031 15.707031 C 60.167969 15.101562 60.792969 14.46875 61.53125 14.730469 C 62.695312 15.136719 63.1875 17.117188 62.894531 18.203125 C 62.726562 18.832031 62.148438 19.402344 61.546875 19.613281 C 61.160156 19.75 60.726562 19.742188 60.363281 19.566406 C 59.941406 19.359375 59.660156 18.941406 59.527344 18.480469 C 59.496094 18.390625 59.476562 18.300781 59.460938 18.210938 C 59.320312 17.402344 59.425781 16.441406 59.832031 15.707031 Z M 56.6875 23.359375 C 56.265625 23.113281 56.050781 22.625 55.941406 22.148438 C 55.824219 21.671875 55.785156 21.175781 55.820312 20.683594 C 55.851562 20.257812 55.945312 19.820312 56.195312 19.476562 C 56.421875 19.160156 56.808594 18.917969 57.207031 18.957031 C 57.445312 18.980469 57.664062 19.101562 57.847656 19.257812 C 58.605469 19.90625 59.292969 21.054688 59.207031 22.078125 C 59.207031 22.078125 59.207031 22.082031 59.207031 22.082031 C 59.113281 23.171875 57.632812 23.90625 56.6875 23.359375 Z M 68.121094 27.480469 C 67.824219 28.203125 67.105469 28.746094 66.332031 28.847656 C 65.863281 28.910156 65.414062 28.828125 64.96875 28.703125 C 64.4375 28.550781 63.894531 28.476562 63.347656 28.476562 C 62.800781 28.476562 62.253906 28.550781 61.722656 28.703125 C 61.28125 28.828125 60.832031 28.910156 60.363281 28.847656 C 59.585938 28.746094 58.871094 28.203125 58.574219 27.480469 C 58.304688 26.8125 58.394531 26.007812 58.808594 25.414062 C 59.460938 24.488281 60.621094 24.121094 61.164062 23.078125 C 61.660156 22.125 62.03125 20.808594 63.347656 20.808594 C 64.660156 20.808594 65.03125 22.125 65.53125 23.078125 C 66.074219 24.121094 67.234375 24.488281 67.882812 25.414062 C 68.296875 26.007812 68.390625 26.8125 68.121094 27.480469 Z M 70.730469 22.457031 C 70.585938 22.921875 70.34375 23.398438 69.90625 23.617188 C 68.925781 24.105469 67.496094 23.277344 67.472656 22.183594 C 67.472656 22.179688 67.472656 22.179688 67.472656 22.179688 C 67.453125 21.152344 68.214844 20.046875 69.011719 19.449219 C 69.203125 19.304688 69.429688 19.199219 69.671875 19.191406 C 70.070312 19.179688 70.441406 19.445312 70.644531 19.773438 C 70.871094 20.136719 70.9375 20.574219 70.945312 21 C 70.945312 21.496094 70.875 21.988281 70.730469 22.457031 Z M 70.730469 22.457031 " fill-opacity="1" fill-rule="nonzero"/></g><g clip-path="url(#4a6bf6b1f0)"><path fill="#112842" d="M 225.949219 38.632812 L 13.890625 38.632812 C 13.363281 38.632812 12.9375 38.230469 12.9375 37.738281 C 12.9375 37.242188 13.363281 36.839844 13.890625 36.839844 L 225.949219 36.839844 C 226.472656 36.839844 226.898438 37.242188 226.898438 37.738281 C 226.898438 38.230469 226.472656 38.632812 225.949219 38.632812 " fill-opacity="1" fill-rule="nonzero"/></g></svg>